# xmcd
#
# Track frame offsets:
#	150
#	12995
#	25595
#	41230
#	57997
#	73572
#	90910
#	109762
#	127572
#	153117
#	167842
#	186002
#	200645
#	210517
#	235847
#
# Disc length: 3412 seconds
#
# Revision: 2
# Processed by: cddbd v1.5.1PL0 Copyright (c) Steve Scherf et al.
# Submitted via: dBpowerAMP V4.0
#
DISCID=b80d520f
DTITLE=Tom Adams, Tony Furtado, and Tony Trischka - Rounder Banjo Extravaganza - Live
DYEAR=1992
DGENRE=Bluegrass
TTITLE0=Banjo Signal - Tom Adams, Tony Furtado, Tony Trischka
TTITLE1=Knoxlyn Breakdown - Tom Adams
TTITLE2=Santa Cruz - Tom Adams
TTITLE3=Read Line to Shady Grove - Tom Adams
TTITLE4=Chorei - Tony Furtado, Barry Mitterhoff
TTITLE5=Tyson's Dream - Tony Furtado
TTITLE6=Perhaps - Tony Furtado
TTITLE7=Celtic Medley - Tony Furtado
TTITLE8=Dead End - David Grier
TTITLE9=All Full Up - Mark Schatz
TTITLE10=Go Home With the Girls in the Morning/Slate - Mark Schatz
TTITLE11=Silver Jenny - Tony Trischka
TTITLE12=Karen's Quickstep - Tony Trischka
TTITLE13=Blues for Topo Gigio - Tony Trischka
TTITLE14=Earl's Farewell Blues - Tom Adams, Tony Furtado, Tony Trischka
EXTD=
EXTT0=
EXTT1=
EXTT2=
EXTT3=
EXTT4=
EXTT5=
EXTT6=
EXTT7=
EXTT8=
EXTT9=
EXTT10=
EXTT11=
EXTT12=
EXTT13=
EXTT14=
PLAYORDER=
